<svg width="42" height="42" viewBox="0 0 42 42" fill="none" xmlns="http://www.w3.org/2000/svg">
<circle cx="21" cy="21" r="21" fill="#FFF8DC"/>
<path d="M20.3594 11.8086C19.9844 11.8086 19.7031 11.8359 19.5156 11.8906V10.8477H20.7344C22.7891 10.8477 24.3359 11.2344 25.375 12.0078C26.3281 12.7109 26.8047 13.6914 26.8047 14.9492C26.8047 15.9492 26.4375 16.7852 25.7031 17.457C24.9766 18.1211 23.9922 18.5234 22.75 18.6641V18.7109C25.0703 19.0234 26.5781 19.8594 27.2734 21.2188C27.5312 21.7031 27.6602 22.2734 27.6602 22.9297C27.6602 23.5781 27.5469 24.1797 27.3203 24.7344C27.0938 25.2891 26.7422 25.7734 26.2656 26.1875C25.2422 27.0625 23.7539 27.5 21.8008 27.5H19.5156V26.4688C19.6875 26.5156 20.0391 26.5391 20.5703 26.5391C21.9219 26.5391 22.9141 26.2656 23.5469 25.7188C24.1797 25.1719 24.4961 24.293 24.4961 23.082C24.4961 21.8711 24.1523 20.9414 23.4648 20.293C22.7852 19.6445 21.75 19.3203 20.3594 19.3203H19.5156V18.2891H19.9609C22.4062 18.2891 23.6289 17.1836 23.6289 14.9727C23.6289 12.8633 22.5391 11.8086 20.3594 11.8086ZM18.543 27.5H13.9844V26.8086C14.1953 26.7148 14.3984 26.6406 14.5938 26.5859C14.7969 26.5312 14.9766 26.4609 15.1328 26.375C15.4609 26.1875 15.625 25.8438 15.625 25.3438V13.0039C15.625 12.5039 15.4609 12.1602 15.1328 11.9727C14.9766 11.8867 14.7969 11.8164 14.5938 11.7617C14.3984 11.707 14.1953 11.6328 13.9844 11.5391V10.8477H18.543V27.5Z" fill="black"/>
</svg>
